<svg viewBox="0 0 1951 757">
    <g transform="matrix(1,0,0,1,0,-3.00417)">
        <g transform="matrix(1.0873,0,0,1.03065,0,0)">
            <g id="Wires" transform="matrix(3.83212,0,0,4.04276,0,0)">
                <path d="M389.826,24.387C388.158,24.387 386.805,23.034 386.805,21.366C386.805,19.697 388.158,18.345 389.826,18.345C391.494,18.345 392.848,19.697 392.848,21.366C392.848,23.034 391.494,24.387 389.826,24.387Z" style="fill:rgb(0,169,163);fill-rule:nonzero;"/>
                <path d="M0.791,56.37L0.078,56.369L0.078,54.619L0.794,54.622C0.81,54.622 6.704,54.639 16.145,54.664C25.588,54.69 38.564,54.724 52.698,54.757C80.964,54.824 117.213,54.891 149.129,54.891C181.043,54.891 208.639,54.824 219.572,54.622C231.67,54.402 239.377,49.904 245.555,44.278C251.729,38.652 256.29,31.86 261.969,27.179C265.752,24.06 270.09,21.896 275.652,21.798C275.879,21.791 276.1,21.791 276.314,21.791C290.844,21.826 304.078,32.253 316.191,37.811C325.471,42.062 334.799,49.458 344.615,49.427L344.623,49.426C344.631,49.426 344.643,49.426 344.658,49.427C346.119,49.425 347.592,49.264 349.07,48.914C363.418,45.194 379.645,31.885 389.1,20.829L389.566,20.284L390.889,21.426L390.426,21.967C380.762,33.218 364.48,46.679 349.492,50.61C347.85,51.001 346.229,51.175 344.629,51.174C333.934,51.137 324.482,43.463 315.463,39.4C303.123,33.67 290.045,23.549 276.41,23.539L276.314,23.539C276.107,23.539 275.902,23.541 275.686,23.546C270.582,23.609 266.684,25.549 263.08,28.521C259.484,31.491 256.238,35.502 252.598,39.568C245.334,47.695 236.344,56.06 219.604,56.37C208.635,56.573 181.051,56.639 149.129,56.64C85.291,56.639 0.792,56.37 0.791,56.37Z" style="fill:rgb(0,169,163);fill-rule:nonzero;"/>
                <path d="M404.324,63.545C402.655,63.545 401.303,62.192 401.303,60.524C401.303,58.856 402.655,57.503 404.324,57.503C405.993,57.503 407.345,58.856 407.345,60.524C407.345,62.192 405.993,63.545 404.324,63.545Z" style="fill:rgb(111,43,142);fill-rule:nonzero;"/>
                <path d="M0.135,63.89L0.135,62.14L0.85,62.14C0.851,62.14 186.591,62.14 214.688,62.141C214.691,62.141 214.702,62.14 214.72,62.14C241.827,62.146 257.604,57.036 279.384,57.028C280.024,57.028 280.671,57.034 281.308,57.043C290.353,57.048 299.276,58.989 307.808,58.984L307.813,58.984C307.823,58.983 307.836,58.984 307.851,58.984C308.442,58.984 309.032,58.976 309.612,58.957C318.565,58.338 325.397,53.714 332.39,47.991C342.428,40.017 353.213,32.88 365.223,32.864C370.048,32.863 375.046,34.036 380.171,36.74C391.139,42.215 398.636,49.385 404.751,59.701L404.851,59.869L404.851,60.472L403.614,61.211L403.249,60.595C397.255,50.513 390.091,43.664 379.372,38.294C374.458,35.705 369.766,34.614 365.223,34.614L365.175,34.614C353.921,34.617 343.425,41.433 333.489,49.352C326.45,55.109 319.261,60.044 309.725,60.703L309.698,60.703C309.074,60.724 308.446,60.734 307.817,60.734C299.047,60.727 290.151,58.795 281.369,58.792L281.364,58.793L281.294,58.792C280.651,58.782 280.016,58.777 279.384,58.777L279.341,58.777C257.902,58.774 242.052,63.883 214.704,63.89L0.135,63.89Z" style="fill:rgb(111,43,142);fill-rule:nonzero;"/>
                <path d="M409.701,36.769C408.031,36.769 406.68,35.417 406.68,33.748C406.68,32.079 408.031,30.727 409.701,30.727C411.369,30.727 412.723,32.079 412.723,33.748C412.723,35.417 411.369,36.769 409.701,36.769Z" style="fill:rgb(241,90,41);fill-rule:nonzero;"/>
                <path d="M365.928,53.695C359.453,48.831 354.488,42.905 349.115,37.734C343.738,32.558 337.988,28.138 329.908,26.121C326.75,25.32 323.777,24.964 320.945,24.964L320.938,24.964L320.922,24.962L320.922,24.963C311.309,24.962 303.246,29.102 295.303,34.293C287.361,39.476 279.586,45.695 270.547,49.661C266.949,51.162 263.836,51.854 260.79,51.853C257.23,51.853 253.811,50.912 249.791,49.34C240.939,45.547 232.469,43.356 223.047,43.355C211.021,43.352 200.998,44.946 186.717,44.948C179.613,44.947 133.16,44.947 88.484,44.948C43.807,44.947 0.908,44.947 0.907,44.949L0.192,44.949L0.192,43.2L186.717,43.2C200.855,43.202 210.852,41.609 223.047,41.606C232.746,41.606 241.486,43.877 250.453,47.722C254.361,49.25 257.549,50.105 260.79,50.105C263.57,50.105 266.424,49.484 269.861,48.054C278.613,44.234 286.318,38.073 294.355,32.82C302.389,27.573 310.795,23.222 320.945,23.216C323.924,23.216 327.045,23.591 330.336,24.424C338.828,26.549 344.869,31.212 350.328,36.472C355.791,41.737 360.705,47.603 366.973,52.295C368.598,53.498 370.49,54.026 372.658,54.028L372.676,54.028C378.34,54.049 385.68,50.222 392.459,45.661C399.25,41.107 405.498,35.877 409.285,33.166L409.867,32.75L410.881,34.173L410.301,34.588C406.6,37.223 400.313,42.502 393.426,47.122C386.525,51.736 379.045,55.748 372.658,55.776L372.643,55.776C370.199,55.776 367.889,55.153 365.928,53.695Z" style="fill:rgb(241,90,41);fill-rule:nonzero;"/>
                <path d="M405.263,97C403.594,97 402.24,95.648 402.24,93.981C402.24,92.311 403.594,90.959 405.263,90.959C406.93,90.959 408.282,92.311 408.282,93.981C408.282,95.648 406.93,97 405.263,97Z" style="fill:rgb(248,237,47);fill-rule:nonzero;"/>
                <path d="M405.222,94.693C397.562,94.263 391.407,90.166 385.741,87.427C378.369,83.817 371.7,79.848 363.818,76.694C356.245,73.735 347.745,71.575 338.968,71.379C338.646,71.373 338.326,71.369 338.008,71.369L337.966,71.369C329.644,71.369 321.99,73.775 313.579,74.565C311.13,74.775 308.749,74.874 306.428,74.874C284.294,74.859 267.665,66.009 247.626,61.191C244.944,60.565 243.045,60.396 240.993,60.393C239.233,60.393 237.349,60.525 234.832,60.619C234.076,60.669 233.321,60.693 232.569,60.693C224.298,60.686 216.911,57.788 209.673,55.804C202.372,53.821 197.097,52.852 189.208,52.848L0.849,52.848L0.849,52.133L0.849,52.848L0.135,52.848L0.135,51.218L189.192,51.219C189.2,51.219 189.21,51.218 189.222,51.218C197.263,51.216 202.818,52.238 210.179,54.242C217.541,56.275 224.76,59.068 232.558,59.064L232.569,59.064C233.282,59.064 233.996,59.043 234.716,58.993L234.727,58.992L234.737,58.992C237.233,58.9 239.128,58.765 240.993,58.764C243.159,58.763 245.267,58.955 248.07,59.615C268.403,64.534 284.845,73.253 306.416,73.245L306.422,73.243C306.431,73.243 306.44,73.244 306.453,73.245C308.713,73.244 311.026,73.149 313.407,72.943C321.558,72.198 329.29,69.748 338.008,69.741C338.341,69.74 338.675,69.744 339.011,69.751C348.079,69.954 356.788,72.178 364.515,75.198C372.563,78.421 379.276,82.421 386.563,85.986C392.37,88.825 398.329,92.701 405.326,93.068L406.108,93.109L405.873,94.728L405.222,94.693Z" style="fill:rgb(248,237,47);fill-rule:nonzero;"/>
                <path d="M369.325,90.367C367.657,90.367 366.304,89.015 366.304,87.347C366.304,85.678 367.657,84.326 369.325,84.326C370.993,84.326 372.346,85.678 372.346,87.347C372.346,89.015 370.993,90.367 369.325,90.367Z" style="fill:rgb(190,30,45);fill-rule:nonzero;"/>
                <path d="M369.445,88.253C368.348,88.253 367.251,88.253 366.138,88.252L366.138,87.89L366.138,88.252L366.099,88.251L366.075,88.25C349.649,86.799 338.866,77.41 326.837,67.894C312.187,56.456 291.914,56.39 273.581,55.696C268.109,55.413 262.663,55.281 257.229,55.28C242.38,55.28 227.614,56.264 212.644,57.816C205.815,58.508 200.603,59.932 188.93,59.942L188.927,59.943L5.95,59.943C1.787,59.943 1.013,59.943 0.886,59.944L0.135,60.012L0.135,58.151L188.781,58.151C200.41,58.15 205.421,56.752 212.46,56.032C227.473,54.475 242.302,53.488 257.229,53.487C262.692,53.487 268.17,53.621 273.662,53.905C291.911,54.627 312.6,54.561 327.944,66.483C340.038,76.065 350.461,85.069 366.185,86.459C367.271,86.459 368.358,86.459 369.445,86.46L370.159,86.46L370.159,88.253L369.445,88.253Z" style="fill:rgb(190,30,45);fill-rule:nonzero;"/>
                <path d="M424.396,59.309C422.728,59.309 421.374,57.955 421.374,56.288C421.374,54.619 422.728,53.266 424.396,53.266C426.063,53.266 427.416,54.619 427.416,56.288C427.416,57.955 426.063,59.309 424.396,59.309Z" style="fill:rgb(190,215,59);fill-rule:nonzero;"/>
            </g>
        </g>
        <g transform="matrix(1.0873,0,0,1.03065,0,0)">
            <g id="Toolkit" transform="matrix(0.919708,0,0,0.970263,-86.8453,428.516)">
                <g transform="matrix(620.833,0,0,620.833,94.427,317.752)">
                    <path d="M0.022,-0.7L0.067,-0.7C0.082,-0.696 0.089,-0.687 0.089,-0.672L0.089,-0.454L0,-0.411L0,-0.672C0.003,-0.69 0.01,-0.7 0.022,-0.7ZM0.249,-0.501C0.269,-0.505 0.284,-0.486 0.294,-0.444L0.294,-0.439C0.294,-0.427 0.279,-0.416 0.25,-0.405L0,-0.289L0,-0.385L0.19,-0.474C0.219,-0.489 0.239,-0.498 0.249,-0.501ZM0.089,-0.307L0.089,-0.13C0.089,-0.109 0.099,-0.095 0.119,-0.089L0.294,-0.089C0.315,-0.089 0.327,-0.102 0.33,-0.128C0.33,-0.16 0.34,-0.176 0.359,-0.176L0.39,-0.176C0.408,-0.174 0.417,-0.164 0.417,-0.146L0.417,-0.117C0.417,-0.082 0.4,-0.051 0.365,-0.023C0.344,-0.007 0.316,0 0.283,0L0.142,0C0.071,0 0.026,-0.03 0.006,-0.092C0.002,-0.105 0,-0.121 0,-0.141L0,-0.264L0.089,-0.307Z" class="cls-2" style="fill-rule:nonzero;"/>
                </g>
                <g transform="matrix(696.805,0,0,620.833,399.605,317.752)">
                    <path d="M0.129,-0.5L0.129,-0.498L0.133,-0.5L0.258,-0.5C0.317,-0.5 0.359,-0.483 0.384,-0.451C0.402,-0.426 0.411,-0.402 0.412,-0.377L0.412,-0.121C0.412,-0.07 0.384,-0.032 0.328,-0.005C0.313,-0.001 0.302,0 0.296,0L0.119,0C0.07,0 0.033,-0.027 0.007,-0.082C0.002,-0.099 0,-0.115 0,-0.132L0,-0.368C0,-0.426 0.027,-0.467 0.082,-0.491C0.093,-0.496 0.109,-0.499 0.129,-0.5ZM0.087,-0.375L0.087,-0.123C0.087,-0.101 0.101,-0.089 0.129,-0.086L0.282,-0.086C0.306,-0.086 0.32,-0.097 0.324,-0.121L0.324,-0.377C0.324,-0.397 0.311,-0.408 0.286,-0.412L0.124,-0.412C0.1,-0.407 0.087,-0.395 0.087,-0.375Z" class="cls-2" style="fill-rule:nonzero;"/>
                </g>
                <g transform="matrix(717.002,0,0,620.833,731.757,317.752)">
                    <path d="M0.129,-0.5L0.129,-0.498L0.133,-0.5L0.258,-0.5C0.317,-0.5 0.359,-0.483 0.384,-0.451C0.402,-0.426 0.411,-0.402 0.412,-0.377L0.412,-0.121C0.412,-0.07 0.384,-0.032 0.328,-0.005C0.313,-0.001 0.302,0 0.296,0L0.119,0C0.07,0 0.033,-0.027 0.007,-0.082C0.002,-0.099 0,-0.115 0,-0.132L0,-0.368C0,-0.426 0.027,-0.467 0.082,-0.491C0.093,-0.496 0.109,-0.499 0.129,-0.5ZM0.087,-0.375L0.087,-0.123C0.087,-0.101 0.101,-0.089 0.129,-0.086L0.282,-0.086C0.306,-0.086 0.32,-0.097 0.324,-0.121L0.324,-0.377C0.324,-0.397 0.311,-0.408 0.286,-0.412L0.124,-0.412C0.1,-0.407 0.087,-0.395 0.087,-0.375Z" class="cls-2" style="fill-rule:nonzero;"/>
                </g>
                <g transform="matrix(620.833,0,0,620.833,1065.85,317.752)">
                    <path d="M0.023,-0.7L0.065,-0.7C0.078,-0.7 0.086,-0.691 0.088,-0.674L0.088,-0.132C0.088,-0.111 0.098,-0.097 0.117,-0.09L0.382,-0.09C0.404,-0.09 0.415,-0.082 0.415,-0.066L0.415,-0.025C0.415,-0.012 0.406,-0.004 0.387,-0.001L0.128,-0.001C0.096,-0.001 0.067,-0.012 0.042,-0.035C0.014,-0.063 0.001,-0.09 0.001,-0.118L0.001,-0.678C0.004,-0.692 0.012,-0.7 0.023,-0.7Z" class="cls-2" style="fill-rule:nonzero;"/>
                </g>
                <g transform="matrix(620.833,0,0,620.833,1361.99,317.752)">
                    <path d="M0.022,-0.698L0.067,-0.698C0.081,-0.696 0.088,-0.687 0.089,-0.67L0.089,-0.399L0,-0.358L0,-0.67C0.001,-0.688 0.008,-0.698 0.022,-0.698ZM0.379,-0.504C0.393,-0.504 0.405,-0.487 0.416,-0.453L0.416,-0.441C0.416,-0.433 0.394,-0.418 0.349,-0.399L0.001,-0.234L0,-0.333L0.372,-0.504L0.379,-0.504ZM0.287,-0.348L0.411,-0.06C0.413,-0.044 0.406,-0.036 0.398,-0.032L0.363,-0.016C0.352,-0.014 0.341,-0.012 0.332,-0.023L0.209,-0.306L0.287,-0.348ZM0.089,-0.253L0.089,-0.027C0.089,-0.011 0.079,-0.002 0.059,0L0.035,0C0.012,0 0,-0.009 0,-0.028L0,-0.21L0.089,-0.253Z" class="cls-2" style="fill-rule:nonzero;"/>
                </g>
                <g transform="matrix(620.833,0,0,620.833,1659.5,317.752)">
                    <path d="M0.061,-0.698C0.08,-0.698 0.095,-0.684 0.104,-0.658L0.104,-0.638C0.104,-0.618 0.091,-0.603 0.064,-0.594L0.052,-0.592C0.027,-0.592 0.01,-0.606 0,-0.634L-0.001,-0.646C-0.001,-0.671 0.013,-0.688 0.041,-0.698L0.061,-0.698ZM0.031,-0.504L0.073,-0.504C0.089,-0.504 0.097,-0.491 0.097,-0.466L0.097,-0.042C0.097,-0.015 0.086,-0.002 0.063,-0.002L0.042,-0.002C0.019,-0.002 0.008,-0.015 0.008,-0.042L0.008,-0.466C0.008,-0.491 0.016,-0.504 0.031,-0.504Z" class="cls-2" style="fill-rule:nonzero;"/>
                </g>
                <g transform="matrix(620.833,0,0,620.833,1786.21,317.752)">
                    <path d="M0.022,-0.7L0.067,-0.7C0.082,-0.696 0.089,-0.687 0.089,-0.672L0.089,-0.454L0,-0.411L0,-0.672C0.003,-0.69 0.01,-0.7 0.022,-0.7ZM0.249,-0.501C0.269,-0.505 0.284,-0.486 0.294,-0.444L0.294,-0.439C0.294,-0.427 0.279,-0.416 0.25,-0.405L0,-0.289L0,-0.385L0.19,-0.474C0.219,-0.489 0.239,-0.498 0.249,-0.501ZM0.089,-0.307L0.089,-0.13C0.089,-0.109 0.099,-0.095 0.119,-0.089L0.294,-0.089C0.315,-0.089 0.327,-0.102 0.33,-0.128C0.33,-0.16 0.34,-0.176 0.359,-0.176L0.39,-0.176C0.408,-0.174 0.417,-0.164 0.417,-0.146L0.417,-0.117C0.417,-0.082 0.4,-0.051 0.365,-0.023C0.344,-0.007 0.316,0 0.283,0L0.142,0C0.071,0 0.026,-0.03 0.006,-0.092C0.002,-0.105 0,-0.121 0,-0.141L0,-0.264L0.089,-0.307Z" class="cls-2" style="fill-rule:nonzero;"/>
                </g>
            </g>
        </g>
        <g transform="matrix(1.0873,0,0,1.03065,0,0)">
            <g id="Techtrails" transform="matrix(3.83212,0,0,4.04276,0,0)">
                <path d="M346.005,68.272L346.186,67.965L346.005,68.272ZM346.03,68.287C341.815,66.022 338.681,62.327 335.419,58.939C332.155,55.541 328.796,52.462 324.21,51.199C322.216,50.586 320.11,50.335 317.947,50.336L317.888,50.336L317.883,50.335C312.873,50.343 307.557,51.696 302.683,52.825L302.666,52.829L302.635,52.834C300.554,53.17 298.655,53.32 296.894,53.32C290.579,53.316 286.102,51.38 281.438,49.337C276.764,47.292 271.876,45.125 264.481,44.435C264.271,44.412 264.042,44.4 263.798,44.4L263.772,44.4L263.763,44.399C261.458,44.394 257.772,45.49 253.294,46.642C248.793,47.792 243.449,48.981 237.628,49.094C228.386,49.093 0.85,49.093 0.85,49.093L0.135,49.093L0.135,47.381L0.77,47.311C0.823,47.305 0.83,47.306 0.831,47.306L1.177,47.306C1.411,47.305 1.789,47.305 2.362,47.305L114.701,47.305C173.275,47.305 233.007,47.305 237.61,47.306C243.21,47.202 248.405,46.047 252.864,44.906C257.331,43.77 261.022,42.629 263.798,42.614C264.101,42.614 264.394,42.627 264.665,42.658C272.326,43.379 277.476,45.648 282.136,47.688C286.808,49.731 290.955,51.529 296.857,51.532C296.857,51.532 296.872,51.531 296.899,51.532C298.55,51.532 300.345,51.393 302.315,51.077C307.167,49.959 312.611,48.551 317.947,48.548C320.248,48.55 322.532,48.813 324.712,49.484C329.792,50.907 333.404,54.26 336.71,57.698C340.018,61.148 343.052,64.691 346.876,66.713L346.887,66.718L346.904,66.728C351.409,69.377 356.017,70.432 360.712,70.434L360.725,70.434C374.438,70.456 388.843,61.21 401.323,55.952C405.382,54.269 410.755,52.105 415.729,52.088L415.763,52.088C418.599,52.084 421.366,52.827 423.526,54.864L424.966,54.864L422.982,56.841L422.478,56.337C420.69,54.554 418.394,53.881 415.753,53.875L415.683,53.875L415.678,53.874C411.23,53.887 406.01,55.926 402.013,57.602C389.731,62.727 375.209,72.192 360.712,72.221C355.759,72.223 350.802,71.091 346.03,68.287Z" style="fill:rgb(190,215,59);fill-rule:nonzero;"/>
                <path d="M4.404,20.119L4.404,28.831C4.404,29.874 4.893,30.549 5.872,30.853L14.512,30.853C15.523,30.853 16.101,30.212 16.245,28.928C16.261,27.355 16.751,26.561 17.713,26.545L19.206,26.545C20.121,26.673 20.578,27.163 20.578,28.014L20.578,29.481C20.578,31.182 19.719,32.715 18.002,34.078C16.943,34.864 15.595,35.258 13.959,35.258L6.979,35.258C3.513,35.258 1.283,33.733 0.288,30.685C0.096,30.075 0,29.273 0,28.278L0,22.237L4.404,20.119ZM12.274,10.54C13.237,10.364 13.983,11.295 14.512,13.332L14.512,13.597C14.512,14.191 13.774,14.744 12.298,15.258L0,21.01L0,16.268L9.362,11.864C10.806,11.125 11.777,10.685 12.274,10.54ZM1.106,0.745L3.321,0.745C4.042,0.905 4.404,1.362 4.404,2.117L4.404,12.851L0,14.969L0,2.117C0.144,1.202 0.513,0.745 1.106,0.745Z" class="cls-1" style="fill-rule:nonzero;"/>
                <path d="M41.131,26.689L42.479,26.689C43.586,26.706 44.155,27.243 44.188,28.302L44.188,29.674C44.188,31.327 43.257,32.851 41.396,34.247C40.433,34.905 39.117,35.233 37.449,35.233L30.613,35.233C27.533,35.233 25.471,33.798 24.428,30.926L28.375,29.217C28.375,30.1 28.977,30.669 30.18,30.926L38.171,30.926C39.246,30.926 39.84,30.236 39.952,28.856C39.952,27.477 40.345,26.754 41.131,26.689ZM29.651,10.612L38.772,10.612C40.682,10.612 42.366,11.792 43.827,14.15C44.131,15.049 44.284,15.707 44.284,16.123L44.284,20.456L24.091,30.036L24.067,25.246L40.048,17.833L40.048,16.678C39.807,15.475 39.206,14.873 38.243,14.873L30.204,14.873C29.002,15.098 28.399,15.699 28.399,16.678L28.399,21.996L24.067,24.066L24.067,17.4C24.067,14.191 25.447,12.025 28.207,10.901C28.848,10.708 29.33,10.612 29.651,10.612Z" class="cls-1" style="fill-rule:nonzero;"/>
                <path d="M53.718,10.564L62.84,10.564C64.75,10.564 66.434,11.744 67.895,14.102C68.199,15.017 68.352,15.675 68.352,16.076L68.352,18.266C68.046,18.796 67.686,19.06 67.269,19.06L65.271,19.06C64.501,19.06 64.115,18.371 64.115,16.991C64.115,15.546 63.418,14.824 62.022,14.824L54.248,14.824C53.044,15.065 52.443,15.666 52.443,16.629L52.443,29.097C52.684,30.3 53.286,30.901 54.248,30.901L62.287,30.901C63.377,30.901 63.987,30.212 64.115,28.831C64.003,27.339 64.389,26.618 65.271,26.665L67.269,26.665C67.686,26.665 68.046,26.938 68.352,27.484L68.352,29.65C68.352,31.319 67.421,32.851 65.56,34.247C64.597,34.905 63.265,35.233 61.564,35.233L54.97,35.233C51.761,35.233 49.594,33.854 48.472,31.094C48.231,30.308 48.111,29.401 48.111,28.374L48.111,17.351C48.111,14.143 49.498,11.977 52.274,10.853C52.916,10.66 53.397,10.564 53.718,10.564Z" class="cls-1" style="fill-rule:nonzero;"/>
                <path d="M76.607,21.731L76.607,33.766C76.607,34.601 76.15,35.089 75.235,35.233L73.935,35.233C72.78,35.233 72.203,34.744 72.203,33.766L72.203,23.849L76.607,21.731ZM89.363,10.348C90.919,10.348 92.026,11.358 92.684,13.38C92.748,13.797 92.78,14.134 92.78,14.391L92.78,34.03C92.78,34.833 92.227,35.233 91.12,35.233L89.916,35.233C88.938,35.233 88.448,34.776 88.448,33.862L88.448,15.041L72.203,22.574L72.203,17.881C82.455,12.923 87.807,10.428 88.256,10.396L89.363,10.348ZM73.31,0.721L75.5,0.721C76.238,0.865 76.607,1.322 76.607,2.093L76.607,14.488L72.203,16.605L72.203,2.093C72.331,1.178 72.7,0.721 73.31,0.721Z" class="cls-1" style="fill-rule:nonzero;"/>
                <path d="M103.901,20.119L103.901,28.831C103.901,29.874 104.39,30.549 105.37,30.853L114.009,30.853C115.02,30.853 115.599,30.212 115.743,28.928C115.759,27.355 116.248,26.561 117.211,26.545L118.703,26.545C119.618,26.673 120.075,27.163 120.075,28.014L120.075,29.481C120.075,31.182 119.216,32.715 117.5,34.078C116.44,34.864 115.093,35.258 113.457,35.258L106.477,35.258C103.011,35.258 100.78,33.733 99.785,30.685C99.593,30.075 99.497,29.273 99.497,28.278L99.497,22.237L103.901,20.119ZM111.771,10.54C112.734,10.364 113.48,11.295 114.009,13.332L114.009,13.597C114.009,14.191 113.272,14.744 111.795,15.258L99.497,21.01L99.497,16.268L108.859,11.864C110.303,11.125 111.274,10.685 111.771,10.54ZM100.605,0.745L102.818,0.745C103.541,0.905 103.901,1.362 103.901,2.117L103.901,12.851L99.497,14.969L99.497,2.117C99.641,1.202 100.011,0.745 100.605,0.745Z" class="cls-1" style="fill-rule:nonzero;"/>
                <path d="M129.172,10.588L138.245,10.588C140.396,10.588 142.145,11.856 143.493,14.391C143.732,15.081 143.853,15.683 143.853,16.195L143.853,18.025C143.853,18.635 143.428,18.996 142.578,19.108L140.965,19.108C140.05,19.108 139.594,18.475 139.594,17.207C139.594,15.635 138.992,14.849 137.788,14.849L129.725,14.849C128.746,14.849 128.146,15.45 127.92,16.653L127.92,33.766C127.92,34.601 127.464,35.089 126.549,35.233L125.299,35.233C124.142,35.233 123.564,34.744 123.564,33.766L123.564,17.375C123.564,14.134 124.953,11.96 127.728,10.853C128.369,10.677 128.851,10.588 129.172,10.588Z" class="cls-1" style="fill-rule:nonzero;"/>
                <path d="M167.897,15.859L167.994,16.292L167.994,20.649C167.784,20.664 162.45,23.127 151.989,28.038L151.989,29.217C152.196,30.372 152.774,30.95 153.722,30.95L161.929,30.95C163.084,30.709 163.66,30.195 163.66,29.409L163.66,23.705C163.726,23.705 165.168,23.048 167.994,21.731L167.994,29.048C167.994,31.824 166.549,33.815 163.66,35.017C162.89,35.194 162.225,35.282 161.664,35.282L153.986,35.282C150.842,35.282 148.763,33.597 147.752,30.227C147.689,29.602 147.656,29.121 147.656,28.784L147.656,25.438C148.521,24.893 152.076,23.2 158.319,20.36L167.897,15.859ZM149.004,10.612L161.759,10.612C164.312,10.612 166.203,11.848 167.438,14.319C167.568,14.511 167.632,14.688 167.632,14.849C165.29,15.972 163.966,16.573 163.66,16.653L163.66,16.581C163.389,15.491 162.875,14.945 162.122,14.945L149.365,14.945C148.226,14.945 147.656,14.463 147.656,13.501L147.656,12.225C147.656,11.15 148.104,10.612 149.004,10.612Z" class="cls-1" style="fill-rule:nonzero;"/>
                <path d="M173.24,10.396L175.31,10.396C176.096,10.396 176.489,11.021 176.489,12.273L176.489,33.164C176.489,34.48 175.919,35.137 174.78,35.137L173.794,35.137C172.654,35.137 172.086,34.48 172.086,33.164L172.086,12.273C172.086,11.021 172.47,10.396 173.24,10.396ZM174.684,0.841C175.647,0.841 176.369,1.499 176.85,2.814L176.85,3.802C176.85,4.78 176.192,5.502 174.876,5.967L174.25,6.064C173.047,6.064 172.206,5.374 171.724,3.994L171.628,3.368C171.628,2.165 172.317,1.322 173.698,0.841L174.684,0.841Z" class="cls-1" style="fill-rule:nonzero;"/>
                <path d="M182.603,0.745L184.696,0.745C185.321,0.745 185.691,1.17 185.804,2.02L185.804,28.711C185.804,29.754 186.284,30.452 187.248,30.805L200.292,30.805C201.383,30.805 201.929,31.199 201.929,31.984L201.929,33.982C201.929,34.656 201.472,35.057 200.557,35.186L187.801,35.186C186.18,35.186 184.753,34.632 183.517,33.525C182.186,32.146 181.52,30.781 181.52,29.434L181.52,1.828C181.68,1.105 182.042,0.745 182.603,0.745Z" class="cls-1" style="fill-rule:nonzero;"/>
                <path d="M211.171,10.588L220.389,10.588C222.299,10.588 223.982,11.76 225.443,14.102C225.73,15.017 225.876,15.683 225.876,16.1L225.876,18.266C225.587,18.811 225.226,19.084 224.793,19.084L222.915,19.084C222.065,18.94 221.641,18.547 221.641,17.905L221.641,16.918C221.641,15.522 220.95,14.824 219.57,14.824L211.989,14.824C211.025,14.824 210.36,15.249 209.991,16.1L209.896,16.557L205.925,14.656C206.598,12.939 207.833,11.672 209.63,10.853C210.368,10.677 210.882,10.588 211.171,10.588ZM206.743,26.665L208.644,26.665C209.479,26.793 209.896,27.179 209.896,27.821L209.896,28.831C209.896,30.212 210.594,30.901 211.989,30.901L219.57,30.901C220.95,30.757 221.641,30.155 221.641,29.097L225.611,31.07C224.425,33.846 222.347,35.233 219.378,35.233L212.158,35.233C209.318,35.233 207.305,33.966 206.117,31.431C205.747,30.709 205.563,29.778 205.563,28.639L205.563,28.278C205.563,27.204 205.955,26.665 206.743,26.665ZM205.563,15.738L225.876,25.222L225.876,29.915L205.563,20.528L205.563,15.738Z" class="cls-1" style="fill-rule:nonzero;"/>
            </g>
        </g>
    </g>
</svg>
